# Blender 4.5.4 LTS
# www.blender.org
o Cube
v 100.000000 100.000000 -100.000000
v 100.000000 -100.000000 -100.000000
v 100.000000 100.000000 100.000000
v 100.000000 -100.000000 100.000000
v -100.000000 100.000000 -100.000000
v -100.000000 -100.000000 -100.000000
v -100.000000 100.000000 100.000000
v -100.000000 -100.000000 100.000000
vn -0.0000 -1.0000 -0.0000
vn -0.0000 -0.0000 -1.0000
vn 1.0000 -0.0000 -0.0000
vn -0.0000 1.0000 -0.0000
vn -1.0000 -0.0000 -0.0000
vn -0.0000 -0.0000 1.0000
vt 62.197929 -61.197929
vt -61.197929 62.197929
vt -61.197929 -61.197929
vt 62.197929 62.197929
s 0
f 3/1/1 5/2/1 1/3/1
f 8/1/2 3/2/2 4/3/2
f 6/1/3 7/2/3 8/3/3
f 8/1/4 2/2/4 6/3/4
f 4/1/5 1/2/5 2/3/5
f 2/1/6 5/2/6 6/3/6
f 3/1/1 7/4/1 5/2/1
f 8/1/2 7/4/2 3/2/2
f 6/1/3 5/4/3 7/2/3
f 8/1/4 4/4/4 2/2/4
f 4/1/5 3/4/5 1/2/5
f 2/1/6 1/4/6 5/2/6
